<?xml version="1.0" encoding="utf-8"?>
<!-- Generator: Adobe Illustrator 18.0.0, SVG Export Plug-In . SVG Version: 6.00 Build 0)  -->
<!DOCTYPE svg PUBLIC "-//W3C//DTD SVG 1.1//EN" "http://www.w3.org/Graphics/SVG/1.1/DTD/svg11.dtd">
<svg version="1.1" id="Layer_1" xmlns="http://www.w3.org/2000/svg" xmlns:xlink="http://www.w3.org/1999/xlink" x="0px" y="0px"
	 viewBox="0 0 1400 1000" enable-background="new 0 0 1400 1000" xml:space="preserve">
<g>
	<g>
		<linearGradient id="SVGID_1_" gradientUnits="userSpaceOnUse" x1="700" y1="15" x2="700" y2="985">
			<stop  offset="0" style="stop-color:#8AD1F3"/>
			<stop  offset="5.998689e-02" style="stop-color:#A9DDF6"/>
			<stop  offset="0.1274" style="stop-color:#C4E8F9"/>
			<stop  offset="0.2049" style="stop-color:#DAF0FB"/>
			<stop  offset="0.2954" style="stop-color:#EBF7FD"/>
			<stop  offset="0.4072" style="stop-color:#F6FCFE"/>
			<stop  offset="0.5642" style="stop-color:#FDFEFF"/>
			<stop  offset="1" style="stop-color:#FFFFFF"/>
		</linearGradient>
		<path fill="url(#SVGID_1_)" d="M15,985h1370V15H15V985z M186.8,146.4L312.9,20.3l154.5,80.3v0l138.4,71.9l56-46.7l72.9,44.9
			L852,39.6l23.3,12.7l38-24.3L939,45.9l26-18l326.9,225.2l-480.9,71.9l-6.1-1.9L531.5,475.7L21,312.2L186.8,146.4L186.8,146.4z"/>
		<path fill="#594A42" d="M0,0v1000h1400V0H0z M1385,985H15V15h1370V985z"/>
		<path fill="#594A42" d="M531.5,475.7L805,323.2l6.1,1.9l480.9-71.9L965,27.9l-26,18L913.3,28l-38,24.3L852,39.6L734.6,170.7
			l-72.9-44.9l-56,46.7l-138.4-71.9v0L312.9,20.3L186.8,146.4l0,0L21,312.2L531.5,475.7z M438.2,145l-80.8-20.8l-31.8,34.5
			L284.9,131l-53.2,36.6L208.4,146L315.7,38.7l143.4,74.5L438.2,145z M230.3,186.8l54.6-37.6l42.8,29.3l34.5-37.5l82.5,21.2
			l27.7-42.1l344.6,179.1L529.8,459.4L49,305.4l148.8-148.8L230.3,186.8z M913,46l26,18.1l26-18l287.1,197.8l-416.8,62.3l13.5-7.5
			L620.2,180l42.9-35.8l74.3,45.8L855.3,58.4l20.7,11.3L913,46z"/>
	</g>
	<g>
		<polygon fill="#006E5C" points="1252.1,243.9 1082.5,127.1 1011.2,103 1020.3,133.6 987.4,113 980,153 936.2,90 904.2,155 
			885.6,130.3 852.1,162 845,120.1 739,216 639.1,164.2 620.2,180 848.8,298.8 835.3,306.3 		"/>
		<polygon fill="#007A6A" points="845,120.1 852.1,162 885.6,130.3 904.2,155 936.2,90 980,153 987.4,113 1020.3,133.6 1011.2,103 
			1082.5,127.1 965,46.1 939,64.1 913,46 875.9,69.7 855.3,58.4 737.4,190 663.1,144.2 639.1,164.2 739,216 		"/>
	</g>
	<g>
		<polygon fill="#D1D3D4" points="422.3,120.1 349,99.7 317,130.3 283,106.3 251.7,127 240.6,113.8 208.4,146 231.7,167.6 
			284.9,131 325.5,158.8 357.4,124.2 438.2,145 459.1,113.2 438.3,102.4 		"/>
		<polygon fill="#F2F2F2" points="283,106.3 317,130.3 349,99.7 422.3,120.1 438.3,102.4 315.7,38.7 240.6,113.8 251.7,127 		"/>
	</g>
	<g>
		<polygon fill="#00998B" points="216.1,228.7 289,195.4 361,251 382.3,223.2 396.3,243.7 411,195.4 472.5,262.3 467.7,213 
			566.3,254.3 566.3,209 666.5,221 472.5,120.1 444.8,162.2 362.3,141 327.8,178.5 284.9,149.2 230.3,186.8 197.8,156.6 
			115.7,238.7 185,206.3 		"/>
		<polygon fill="#048C7B" points="666.5,221 566.3,209 566.3,254.3 467.7,213 472.5,262.3 411,195.4 396.3,243.7 382.3,223.2 
			361,251 289,195.4 216.1,228.7 185,206.3 115.7,238.7 49,305.4 529.8,459.4 817.1,299.2 		"/>
	</g>
	<g>
		<path fill="#46B6AC" d="M1385.1,304.3v-47.8c-47.8-39.5-129.8-61.1-231.5-61.1c-104.4,0-220,23.1-317.2,63.4
			c-51.1,21.2-95.4,46.3-131.7,74.5c-12.8,10-24.5,20.3-35.1,30.9c15.1,7.3,30.3,15.1,45.5,23.4c96.7-63.4,207.8-104.8,322.6-119.4
			C1154.2,253.2,1274.1,265.9,1385.1,304.3z"/>
		<path fill="#42ADA0" d="M1385.1,399.8v-95.4c-111-38.4-230.9-51.1-347.4-36.2c-114.7,14.7-225.9,56-322.6,119.4
			c20.8,11.3,41.6,23.4,62.4,36.4c94-48.5,198.8-76.3,304.5-80C1185.5,340.3,1289.6,359.7,1385.1,399.8z"/>
		<path fill="#3AA091" d="M1082,343.9c-105.7,3.7-210.5,31.4-304.5,80c31.5,19.7,63,41.4,94.2,65.3l-250.8,74.2v1.1h764.2V399.8
			C1289.6,359.7,1185.5,340.3,1082,343.9z"/>
	</g>
	<g>
		<path fill="#7ECBC1" d="M369.2,347.2c135.5,22,265.1,79.4,372.5,164.9l97.1-28.7c-94.4-68.6-195-121.2-299.7-156.6
			c-51-17.2-102.8-30.3-154.1-38.8c-48-8-95.8-12-141.9-12h0c-46.4,0-90.8,4.1-131.9,12.1c-35.5,6.9-67.8,16.6-96.3,28.8V369
			C129.5,335.7,251.5,328.1,369.2,347.2z"/>
		<path fill="#65AA9D" d="M14.9,484.3V727l498.2-147.3c-57.9-45.2-124.5-79.1-195.4-98.4C219.1,454.3,113,455.7,14.9,484.3z"/>
		<path fill="#6BB5A7" d="M14.9,417.7v66.6c98.1-28.6,204.2-30,302.9-3.1c70.8,19.4,137.5,53.2,195.4,98.4l115.5-34.2
			c-89.1-81.2-202.4-135.7-321.7-154C209.5,376.5,108.4,385.9,14.9,417.7z"/>
		<path fill="#73BFB2" d="M369.2,347.2C251.5,328.1,129.5,335.7,14.9,369v48.7c93.4-31.8,194.5-41.1,292.1-26.2
			c119.2,18.3,232.6,72.7,321.7,154l113-33.4C634.3,426.6,504.7,369.2,369.2,347.2z"/>
	</g>
	<path fill="#594A42" d="M1397.4,247.3c-50.1-43.2-136.7-66.9-243.8-66.9c-106.3,0-224,23.5-322.9,64.5
		c-52.3,21.7-97.8,47.5-135.1,76.5c-14.8,11.6-28.3,23.6-40.2,36c-146.9-68.7-290.1-96.5-412.2-96.5C145.9,260.9,62,278.4,0,307v440
		l606-179.2v11.7h794V249.6L1397.4,247.3z M1385.1,564.5H620.9v-1.1l250.8-74.2c-67-51.2-134.9-92.4-202.1-125
		c10.6-10.6,22.3-20.9,35.1-30.9c36.3-28.3,80.6-53.3,131.7-74.5c97.2-40.3,212.8-63.4,317.2-63.4c101.7,0,183.7,21.7,231.5,61.1
		V564.5z M14.9,316.8c28.5-12.2,60.8-21.9,96.3-28.8c41.2-8,85.6-12.1,131.9-12.1h0c46.1,0,93.8,4,141.9,12
		c51.3,8.5,103.1,21.6,154.1,38.8c104.7,35.4,205.4,88,299.7,156.6L14.9,727V316.8z"/>
	<g>
		<path fill="none" d="M1059.6,823.1c10.5,3.5,20.7,8,30.3,13.6c9.3-13.5,21-26.1,34.2-37.4c-3.5,0.7-6.9,1.5-10.3,2.3
			C1094.9,806.4,1076.7,813.7,1059.6,823.1z"/>
		<path fill="#649C42" d="M970.2,818.7c-40.2,9.3-76.6,34.3-99.7,68.5c-47.3-22.5-100.8-11.9-142.7,19.4
			c-35.1-28.4-82.8-40.7-127.3-32.8c-24.6-41.3-67.5-71.3-114.7-80.1s-98.1,3.6-135.9,33.2c-24.9-30.6-66.1-42.5-102.8-28.2
			c-39.6-21.8-91.4-23.7-131.5-2.8C87.4,774.4,50.1,765.6,15,770.8v33.4c0.1,0,0.2,0,0.4,0c35.3,0,71,17.1,90.5,46.8
			c7.8-11.3,21.4-18.3,35.1-18.3c0.5,0,1,0,1.4,0c14.2,0.5,27.9,8.7,35.1,20.9c21.4-22.5,52.6-34.9,83.5-34.9
			c11.6,0,23.2,1.7,34.2,5.4c40.6,13.3,71.9,51.2,77.5,93.5c19.6-11.7,42.4-17.4,65.2-17.4c27.8,0,55.6,8.5,77.8,25.3
			c19.9,15,34.6,36.2,42.9,59.6h191.1c14.6-14,31.2-26,49.2-35.1c29-14.7,61.5-22.2,94-22.2c21.2,0,42.3,3.2,62.5,9.6
			c20.5-48.3,58.2-88.9,104.1-114.1C1030.9,813.6,999.7,812,970.2,818.7z"/>
		<path fill="#8AC249" d="M153.8,716.5c70.6-26,149.5-26.4,220.7-2.3c66.9-30,151-13.3,205.8,35.4c55.8-65.4,155-93.4,235.8-64.3
			c46.4-27.5,113.3-25.8,156.9,6c12-50.7,58.7-94.2,110.2-102.4c77.1-12.1,157.7-1.7,235.7-3c22.9-0.4,45.4,4.7,66.1,13.8v-74
			c-44.4-14.2-95.3-9.8-135.6,13.8c-11.7-9.3-21.1-24.3-35.2-29c-62.1-20.7-136.8-4.6-183.8,41c-37.7-17.4-76.5-35-117.9-38.2
			c-41.4-3.3-80.1,13.3-103.3,47.8c-32.4-7.2-67.3-2.1-96.3,13.9c-29,16-57.4,44.5-68.6,75.7c-21.7-23.4-52.7-38-84.6-39.8
			c-31.9-1.8-61.6,12.5-85.8,33.4c-72.7-36.7-165.9-34.4-237.3,4.9c-51.6-43-120.8-64.1-187.6-57.2c-11.5,1.2-23.1,3.3-34,7.1v97.2
			C62,692.9,109.7,699.8,153.8,716.5z"/>
		<path fill="#9CC967" d="M236.7,649c71.4-39.2,164.6-41.5,237.3-4.9c24.2-20.8,53.9-35.2,85.8-33.4c31.9,1.8,62.9,16.4,84.6,39.8
			c11.2-31.2,39.6-59.7,68.6-75.7c29-16,63.9-21.1,96.3-13.9c23.2-34.5,61.9-51.1,103.3-47.8c41.4,3.3,80.2,20.9,117.9,38.2
			c47-45.6,121.7-61.6,183.8-41c14.2,4.7,23.5,19.7,35.2,29c40.3-23.6,91.2-28,135.6-13.8v-42.5c-21.2-8.3-45.5-13-68.1-13
			c-25.2,0-46.9,5.7-62.7,16.5l-10.2,6.9l-8.8-8.7c-25.3-25.1-60.3-39.9-96-40.7c-0.9,0-1.8,0-2.7,0c-16.9,0-34,3.4-50.7,10.2
			c-16.2,6.6-31.6,16.2-44.5,27.9l-9.3,8.5l-9.9-7.7c-25-19.4-53.3-34.5-83.9-44.9c-30.6-10.4-62.2-15.6-94-15.6
			c-8.9,0-17.9,0.4-26.7,1.3c-34.2,3.3-67.9,14.4-100,33.2c-29.8,17.3-57.7,40.8-83.1,69.7l-6,6.9l-8.9-2.2
			c-12.1-3-24.6-4.5-37.3-4.5c-43.6,0-84.6,17.6-112.7,48.3l-8.9,9.7l-10.8-7.5c-25.1-17.5-56.5-27.1-88.4-27.1
			c-27.6,0-53.9,7.2-75.9,20.7l-8.8,5.4l-8.2-6.3c-36.6-28.2-82.2-44.1-128.3-44.7c-1.2,0-2.5,0-3.7,0c-45.7,0-88.5,11.9-121.5,33.7
			v40c10.9-3.8,22.6-5.9,34-7.1C115.8,584.9,185.1,606,236.7,649z"/>
		<path fill="#7CB542" d="M1318.9,585.9c-78,1.2-158.6-9.2-235.7,3c-51.5,8.1-98.2,51.7-110.2,102.4c-43.5-31.9-110.4-33.5-156.9-6
			c-80.9-29-180.1-1-235.8,64.3c-54.8-48.7-138.9-65.4-205.8-35.4c-71.3-24-150.2-23.7-220.7,2.3C109.7,699.8,62,692.9,15,696.1
			v74.8c35.1-5.2,72.4,3.6,100.5,25.2c40.1-20.9,91.9-19,131.5,2.8c36.7-14.3,77.9-2.4,102.8,28.2c37.8-29.6,88.7-42.1,135.9-33.2
			s90.1,38.8,114.7,80.1c44.5-8,92.2,4.3,127.3,32.8c41.9-31.3,95.5-42,142.7-19.4c23.1-34.2,59.5-59.2,99.7-68.5
			c29.4-6.8,60.7-5.1,89.3,4.4c17.1-9.4,35.3-16.7,54.2-21.5c3.4-0.9,6.9-1.6,10.3-2.3c22-18.8,48.1-33.7,74-42.3
			c41.4-13.7,87.2-13.5,128.5,0.5c14-22.9,34.6-43.3,58.4-57V599.7C1364.2,590.5,1341.7,585.5,1318.9,585.9z"/>
		<path fill="#65B846" d="M1326.6,757.5c-41.3-14-87.1-14.2-128.5-0.5c-25.8,8.6-52,23.5-74,42.3c15-3,30.4-4.6,45.7-4.6
			c53.1,0,106.2,17.8,147.8,51c19.8-13.6,43.4-21.5,67.4-23.2V700.5C1361.2,714.2,1340.6,734.5,1326.6,757.5z"/>
	</g>
	<g>
		<path fill="#58595B" d="M1358.4,790.5c0-30.1-24.4-54.5-54.5-54.5h-32.7c16.1,12.7,26.4,32.4,26.4,54.5s-10.4,41.8-26.4,54.5h32.7
			C1333.9,845,1358.4,820.6,1358.4,790.5z"/>
		<path fill="#594A42" d="M1303.9,721h-75.7h-41c-3.6,0-7.1,0.3-10.6,0.8c-33.3,5.1-58.9,34-58.9,68.7c0,34.7,25.6,63.6,58.9,68.7
			c3.4,0.5,7,0.8,10.6,0.8h41h75.7c38.3,0,69.5-31.2,69.5-69.5S1342.2,721,1303.9,721z M1132.7,790.5c0-30.1,24.4-54.5,54.5-54.5h41
			c30.1,0,54.5,24.4,54.5,54.5s-24.4,54.5-54.5,54.5h-41C1157.1,845,1132.7,820.6,1132.7,790.5z M1297.7,790.5
			c0-22.1-10.4-41.8-26.4-54.5h32.7c30.1,0,54.5,24.4,54.5,54.5s-24.4,54.5-54.5,54.5h-32.7C1287.3,832.3,1297.7,812.6,1297.7,790.5
			z"/>
		<path fill="#6D6E71" d="M1282.7,790.5c0-30.1-24.4-54.5-54.5-54.5h-41c-30.1,0-54.5,24.4-54.5,54.5s24.4,54.5,54.5,54.5h41
			C1258.2,845,1282.7,820.6,1282.7,790.5z"/>
	</g>
	<path opacity="0.45" fill="#326A34" d="M1047.1,798H623.6c-21.9,0-39.6,17.7-39.6,39.6l0,0c0,21.9,17.7,39.6,39.6,39.6h423.5
		c21.9,0,39.6-17.7,39.6-39.6l0,0C1086.7,815.7,1069,798,1047.1,798z"/>
	<path fill="#594A42" d="M1400,473.3c-24.1-11.1-54-18.1-83.1-18.1c-26.1,0-51.5,5.7-71.2,19.1c-28-27.7-66.8-44.2-106.2-45.1
		c-1,0-2,0-3,0c-38.4,0-76.8,16.2-105.2,42c-53-41.1-120.1-63.7-187.2-63.7c-9.4,0-18.8,0.4-28.2,1.3
		c-76.2,7.3-142.5,50.4-192.9,107.9c-13.4-3.3-27.2-4.9-40.9-4.9c-46.4,0-92.2,18.6-123.8,53.1c-28.2-19.6-62.7-29.8-96.9-29.8
		c-29.4,0-58.7,7.5-83.8,22.9c-39.1-30.1-88-47.2-137.3-47.9c-1.3,0-2.6,0-3.9,0C88.4,510.2,38.8,522.8,0,551v254.3V1000v0h1067.8
		l332.2,0v0h0V473.3z M136.5,525.2c1.2,0,2.5,0,3.7,0c46.2,0.7,91.8,16.6,128.3,44.7l8.2,6.3l8.8-5.4c22-13.5,48.3-20.7,75.9-20.7
		c31.8,0,63.2,9.6,88.4,27.1l10.8,7.5l8.9-9.7c28.1-30.7,69.2-48.3,112.7-48.3c12.6,0,25.2,1.5,37.3,4.5l8.9,2.2l6-6.9
		c25.4-28.9,53.3-52.4,83.1-69.7c32.1-18.7,65.8-29.9,100-33.2c8.8-0.8,17.8-1.3,26.7-1.3c31.8,0,63.5,5.3,94,15.6
		c30.7,10.4,58.9,25.5,83.9,44.9l9.9,7.7l9.3-8.5c12.9-11.7,28.3-21.3,44.5-27.9c16.8-6.8,33.8-10.2,50.7-10.2c0.9,0,1.8,0,2.7,0
		c35.6,0.8,70.6,15.6,96,40.7l8.8,8.7l10.2-6.9c15.9-10.8,37.5-16.5,62.7-16.5c22.6,0,46.9,4.7,68.1,13v339.3
		c-24,1.7-47.5,9.6-67.4,23.2c-41.5-33.2-94.7-51-147.8-51c-18.9,0-37.7,2.3-56,6.9C1044,819.3,983.6,871,955.4,937.2
		c-20.2-6.4-41.3-9.6-62.5-9.6c-32.5,0-65,7.5-94,22.2c-18,9.2-34.6,21.1-49.2,35.1H558.6c-8.3-23.5-23-44.6-42.9-59.6
		c-22.2-16.8-50-25.3-77.8-25.3c-22.8,0-45.6,5.8-65.2,17.4c-5.5-42.3-36.9-80.2-77.5-93.5c-11-3.6-22.6-5.4-34.2-5.4
		c-31,0-62.1,12.5-83.5,34.9c-7.2-12.2-20.9-20.4-35.1-20.9c-0.5,0-1,0-1.4,0c-13.7,0-27.3,7-35.1,18.3
		c-19.5-29.7-55.2-46.8-90.5-46.8c-0.1,0-0.2,0-0.4,0V558.9C48,537.1,90.8,525.2,136.5,525.2z M772.4,985
		c10.4-8.5,21.7-15.8,33.4-21.8c26.5-13.5,56.7-20.6,87.2-20.6c19.9,0,39.4,3,57.9,8.9l13,4.2l5.3-12.6
		c26.3-61.8,83.1-110.5,148.3-126.9c16.9-4.3,34.5-6.4,52.4-6.4c24.9,0,49.6,4.1,73.3,12.3c24,8.2,45.9,20.2,65,35.5l8.7,6.9
		l9.2-6.3c17.1-11.7,37.7-18.8,58.9-20.5V985L772.4,985z M15.4,819.2L15.4,819.2c15.3,0,30.7,3.7,44.4,10.6
		c14,7.1,25.6,17.2,33.6,29.4l12.2,18.6l12.7-18.3c5-7.2,13.9-11.9,22.8-11.9c0.3,0,0.6,0,0.9,0c9.2,0.3,18.1,5.6,22.7,13.5
		l10.1,17.1l13.7-14.3c18.1-19,45.3-30.3,72.7-30.3c10.2,0,20.2,1.6,29.5,4.6c17.2,5.6,32.8,16.4,45,31.2c12.2,14.8,19.9,32,22.3,50
		l2.9,22.6l19.6-11.7c16.8-10,36.7-15.3,57.5-15.3c25.3,0,49.7,7.9,68.7,22.3c15.6,11.8,28.1,28.6,35.9,47.7H15V819.2
		C15.1,819.2,15.2,819.2,15.4,819.2z"/>
	<g>
		<path fill="#7DB442" d="M309.4,972.2c-6.9-32.6-33-60.4-65.1-69.3c-32.1-8.9-70.7,2.7-93.4,27.1c-7.3-12.7-21.6-21-36.3-21
			c-14.6,0-29,8.3-36.3,21C64.6,903,41.9,880.8,15,866.8V985h439.1c-11-9-23.3-16.2-36.6-21.2C382.5,950.9,341.9,954,309.4,972.2z"
			/>
		<path fill="#8AC249" d="M506.6,937.3c-19-14.4-43.4-22.3-68.7-22.3c-20.8,0-40.7,5.3-57.5,15.3l-19.6,11.7l-2.9-22.6
			c-2.3-18-10-35.2-22.3-50c-12.2-14.8-27.8-25.5-45-31.2c-9.4-3.1-19.3-4.6-29.5-4.6c-27.4,0-54.6,11.3-72.7,30.3l-13.7,14.3
			l-10.1-17.1c-4.7-7.9-13.6-13.2-22.7-13.5c-0.3,0-0.6,0-0.9,0c-8.8,0-17.8,4.7-22.8,11.9l-12.7,18.3l-12.2-18.6
			c-8-12.1-19.6-22.3-33.6-29.4c-13.8-7-29.1-10.6-44.4-10.6h0c-0.1,0-0.2,0-0.4,0v47.5c26.9,14.1,49.6,36.2,63.2,63.3
			c7.3-12.7,21.7-21,36.3-21c14.6,0,29,8.3,36.3,21c22.7-24.4,61.3-36,93.4-27.1c32.1,8.9,58.2,36.7,65.1,69.3
			c32.5-18.2,73.1-21.4,108.1-8.4c13.3,4.9,25.7,12.2,36.6,21.2h88.4C534.8,965.9,522.2,949.1,506.6,937.3z"/>
	</g>
	<g>
		<path fill="#7DB442" d="M1294.8,945.8c-48.2-40.7-111.6-63-174.6-61.6c-31.7,0.7-63.7,7.4-91,23.5c-27.3,16-49.5,42.1-57,72.8
			c-44-14.1-92.7-11.9-135.8,4.4l548.6,0v-83.3C1351.1,905.6,1318.4,921.1,1294.8,945.8z"/>
		<path fill="#8AC249" d="M1326.1,858.1l-9.2,6.3l-8.7-6.9c-19.2-15.3-41.1-27.2-65-35.5c-23.7-8.1-48.4-12.3-73.3-12.3
			c-17.9,0-35.5,2.2-52.4,6.4c-65.2,16.5-122,65.1-148.3,126.9l-5.3,12.6l-13-4.2c-18.5-5.9-38-8.9-57.9-8.9
			c-30.5,0-60.7,7.1-87.2,20.6c-11.7,6-22.9,13.3-33.4,21.8h64c43.2-16.3,91.8-18.5,135.8-4.4c7.5-30.8,29.7-56.8,57-72.8
			c27.3-16,59.3-22.8,91-23.5c63.1-1.4,126.4,20.9,174.6,61.6c23.6-24.7,56.3-40.2,90.2-44.1v-64.1
			C1363.8,839.3,1343.2,846.4,1326.1,858.1z"/>
	</g>
	<g>
		<path fill="#A97C50" d="M1035.8,719.4c14.5-22.5,18.3-42.5,10.4-54.7c-7.8-12.2-24.8-14.7-37.7-14.7c-23,0-51.5,8-80.3,22v10.4
			c0,11.1-5.8,20.9-14.6,26.4v12.4c0,1.9-1.3,3.5-3.1,3.9v31.7c0,13.2-3.8,25.5-10.3,35.9c7.6,4.9,14,11.5,18.8,19.2
			c14.3-6.1,28.8-13.8,42.9-22.8C993.8,768.7,1020,744,1035.8,719.4z"/>
		<path fill="#594A42" d="M1058.8,656.6c-9-14.2-26.5-21.6-50.3-21.6c-23.7,0-51.7,7.2-80.3,20.4v-42.1c0-12.4-7.2-23.1-17.7-28.1
			V444.9c0-9.1-1.8-17.7-5-25.7c8.5-9.1,13.7-21.3,13.7-34.8c0-28.1-22.9-51-51-51c-25.6,0-46.8,18.9-50.4,43.5h-87.4
			c-3.6-24.6-24.9-43.5-50.4-43.5c-28.1,0-51,22.9-51,51c0,13.4,5.2,25.7,13.7,34.8c-3.2,7.9-5,16.6-5,25.6V585
			c-10.5,5-17.7,15.8-17.7,28.1v69.2c0,11.1,5.8,20.9,14.6,26.4v12.4c0,1.9,1.3,3.5,3.1,3.9v31.7c0,11.4,2.8,22.1,7.8,31.5
			c-21.2,9.6-36.1,30.9-36.1,55.7v7.5h122V844c0-6.7-1.1-13.2-3.1-19.3h75.2c1.4,1.7,2.9,3.4,4.6,4.9c-1.1,4.6-1.7,9.4-1.7,14.4v7.5
			h122V844c0-6.4-1-12.6-2.8-18.4c14.8-6.4,29.9-14.4,44.7-23.8C1042.3,755.5,1081.3,691.7,1058.8,656.6z M912.5,836.5h-90.8
			c3.6-21.8,22.6-38.5,45.4-38.5S908.9,814.6,912.5,836.5z M715.6,836.5h-90.8c3.6-21.8,22.6-38.5,45.4-38.5
			C693.1,798,712.1,814.6,715.6,836.5z M670.3,783c-3.5,0-6.9,0.3-10.3,0.9c-4.7-7.9-7.5-17.2-7.5-27V728c0.3,0.1,0.7,0.2,1.1,0.2
			c2.2,0,4-1.8,4-4v-10.6c2.5-0.1,4.9-0.5,7.2-1.2v8.9c0,2.2,1.8,4,4,4s4-1.8,4-4v-12.4c8.8-5.5,14.6-15.3,14.6-26.4v-69.2
			c0-17.2-14-31.2-31.2-31.2h-3.6V444.9c0-29.2,23.7-52.9,52.9-52.9h137.1c29.2,0,52.9,23.7,52.9,52.9V582h-3.6
			c-17.2,0-31.2,14-31.2,31.2v69.2c0,11.1,5.8,20.9,14.6,26.4v12.4c0,2.2,1.8,4,4,4s4-1.8,4-4v-8.9c2.3,0.7,4.7,1.1,7.2,1.2v10.6
			c0,2.2,1.8,4,4,4c0.4,0,0.7-0.1,1.1-0.2v28.8c0,10.8-3.3,20.9-8.9,29.3c-6.1-2.1-12.6-3.2-19.4-3.2c-20.9,0-39.5,10.6-50.5,26.8
			h-96C709.7,793.6,691.2,783,670.3,783z M715,377h-9.6c-0.4,0-0.8,0-1.3,0c-3.2-10.4-12.9-18-24.3-18c-14,0-25.5,11.4-25.5,25.5
			c0,4.5,1.2,8.7,3.2,12.3c-2.6,2.6-5,5.4-7.1,8.4c-4.1-5.9-6.6-13-6.6-20.7c0-19.8,16.1-36,36-36C697.1,348.5,711.6,360.7,715,377z
			 M904.2,384.5c0,7.7-2.4,14.8-6.6,20.7c-2.2-3-4.5-5.8-7.2-8.4c2-3.6,3.2-7.8,3.2-12.3c0-14-11.4-25.5-25.5-25.5
			c-11.4,0-21.1,7.6-24.3,18c-0.4,0-0.8,0-1.3,0H833c3.5-16.3,17.9-28.5,35.2-28.5C888,348.5,904.2,364.6,904.2,384.5z M913.2,681.1
			c-0.6-1.3-2-2.3-3.6-2.3c-2.2,0-4,1.8-4,4V696c-2.1,1.3-4.5,2.2-7.2,2.4v-10.1c0-2.2-1.8-4-4-4s-4,1.8-4,4v10.1
			c-2.6-0.2-5.1-1.1-7.2-2.4v-13.2c0-2.2-1.8-4-4-4c-1.6,0-2.9,0.9-3.6,2.3v-67.9c0-8.9,7.3-16.2,16.2-16.2h5.1
			c8.9,0,16.2,7.3,16.2,16.2V681.1z M852.1,377.7c2.7-6.2,8.9-10.6,16.1-10.6c9.6,0,17.5,7.8,17.5,17.5c0,2.4-0.5,4.7-1.4,6.8
			C875.1,384.2,864.1,379.4,852.1,377.7z M663.8,391.3c-0.9-2.1-1.4-4.4-1.4-6.8c0-9.6,7.8-17.5,17.5-17.5c7.2,0,13.4,4.4,16.1,10.6
			C683.9,379.4,672.9,384.2,663.8,391.3z M651.1,597h5.1c8.9,0,16.2,7.3,16.2,16.2v67.9c-0.6-1.3-2-2.3-3.6-2.3c-2.2,0-4,1.8-4,4
			V696c-2.1,1.3-4.5,2.2-7.2,2.4v-10.1c0-2.2-1.8-4-4-4s-4,1.8-4,4v10.1c-2.6-0.2-5.1-1.1-7.2-2.4v-13.2c0-2.2-1.8-4-4-4
			c-1.6,0-2.9,0.9-3.6,2.3v-67.9C634.9,604.2,642.1,597,651.1,597z M900.2,792.7c6.5-10.4,10.3-22.7,10.3-35.9v-31.7
			c1.8-0.4,3.1-2,3.1-3.9v-12.4c8.8-5.5,14.6-15.3,14.6-26.4V672c28.8-14,57.4-22,80.3-22c12.9,0,29.9,2.6,37.7,14.7
			c7.8,12.3,4,32.2-10.4,54.7c-15.8,24.6-42,49.3-73.9,69.7c-14.1,9-28.6,16.7-42.9,22.8C914.2,804.2,907.8,797.6,900.2,792.7z"/>
		<path fill="#A97C50" d="M643.9,384.5c0,7.7,2.4,14.8,6.6,20.7c2.2-3,4.5-5.8,7.1-8.4c-2-3.6-3.2-7.8-3.2-12.3
			c0-14,11.4-25.5,25.5-25.5c11.4,0,21.1,7.6,24.3,18c0.4,0,0.8,0,1.3,0h9.6c-3.5-16.3-17.9-28.5-35.2-28.5
			C660,348.5,643.9,364.6,643.9,384.5z"/>
		<path fill="#C49A6C" d="M679.8,367c-9.6,0-17.5,7.8-17.5,17.5c0,2.4,0.5,4.7,1.4,6.8c9.1-7.1,20.1-12,32.1-13.7
			C693.3,371.4,687.1,367,679.8,367z"/>
		<path fill="#A97C50" d="M833,377h9.6c0.4,0,0.8,0,1.3,0c3.2-10.4,12.9-18,24.3-18c14,0,25.5,11.4,25.5,25.5
			c0,4.5-1.2,8.6-3.2,12.3c2.6,2.6,5,5.4,7.2,8.4c4.1-5.9,6.6-13,6.6-20.7c0-19.8-16.1-36-36-36C850.9,348.5,836.4,360.7,833,377z"
			/>
		<path fill="#C49A6C" d="M868.2,367c-7.2,0-13.4,4.4-16.1,10.6c12,1.7,23,6.5,32.1,13.6c0.9-2.1,1.4-4.4,1.4-6.8
			C885.6,374.9,877.8,367,868.2,367z"/>
		<path fill="#A97C50" d="M816.7,809.7c11-16.1,29.5-26.8,50.5-26.8c6.8,0,13.3,1.1,19.4,3.2c5.6-8.4,8.9-18.5,8.9-29.3V728
			c-0.3,0.1-0.7,0.2-1.1,0.2c-2.2,0-4-1.8-4-4v-10.6c-2.5-0.1-4.9-0.5-7.2-1.2v8.9c0,2.2-1.8,4-4,4s-4-1.8-4-4v-12.4
			c-8.8-5.5-14.6-15.3-14.6-26.4v-69.2c0-17.2,14-31.2,31.2-31.2h3.6V444.9c0-29.2-23.7-52.9-52.9-52.9H705.5
			c-29.2,0-52.9,23.7-52.9,52.9V582h3.6c17.2,0,31.2,14,31.2,31.2v69.2c0,11.1-5.8,20.9-14.6,26.4v12.4c0,2.2-1.8,4-4,4s-4-1.8-4-4
			v-8.9c-2.3,0.7-4.7,1.1-7.2,1.2v10.6c0,2.2-1.8,4-4,4c-0.4,0-0.7-0.1-1.1-0.2v28.8c0,9.9,2.7,19.1,7.5,27
			c3.3-0.6,6.8-0.9,10.3-0.9c20.9,0,39.5,10.6,50.5,26.8H816.7z M812,455.1c5.5,0,10,4.5,10,10s-4.5,10-10,10s-10-4.5-10-10
			S806.5,455.1,812,455.1z M746,465.1c0,5.5-4.5,10-10,10c-5.5,0-10-4.5-10-10s4.5-10,10-10C741.5,455.1,746,459.6,746,465.1z
			 M770,566.9h-18.8l-3.6-22.5c-0.1,0-0.3,0-0.4,0c-12.9,0-23.3-10.5-23.3-23.3c0-2.2,1.8-4,4-4s4,1.8,4,4c0,8.5,6.9,15.3,15.3,15.3
			c0.7,0,1.4,0,2.1-0.1l0.9-0.1c0.2,0,0.3,0,0.5-0.1c0,0,0.1,0,0.1,0c10.4-1.6,18.5-10.3,19.3-20.9c-1-0.5-1.9-1.1-2.7-1.9
			L757,503.1c-4.4-4.4-2.5-12,3.5-13.8c8.8-2.6,18.2-2.6,27,0l0,0c6,1.8,7.9,9.3,3.5,13.8l-10.2,10.2c-0.8,0.8-1.7,1.4-2.7,1.9
			c0.8,10.6,8.9,19.3,19.2,20.9c0,0,0.1,0,0.1,0c0.1,0,0.3,0,0.4,0.1l0.9,0.1c0.7,0.1,1.4,0.1,2.1,0.1c8.5,0,15.3-6.9,15.3-15.3
			c0-2.2,1.8-4,4-4s4,1.8,4,4c0,12.9-10.5,23.3-23.3,23.3c-0.1,0-0.3,0-0.4,0l-3.6,22.5H778H770z"/>
		<path fill="#A97C50" d="M670.3,798c-22.8,0-41.8,16.7-45.4,38.5h90.8C712.1,814.6,693.1,798,670.3,798z"/>
		<path fill="#A97C50" d="M867.1,798c-22.8,0-41.8,16.7-45.4,38.5h90.8C908.9,814.6,890,798,867.1,798z"/>
		<path fill="#594A42" d="M726,465.1c0,5.5,4.5,10,10,10c5.5,0,10-4.5,10-10s-4.5-10-10-10C730.5,455.1,726,459.6,726,465.1z
			 M739,458.3c1.9,0,3.4,1.5,3.4,3.4c0,1.9-1.5,3.4-3.4,3.4s-3.4-1.5-3.4-3.4C735.6,459.8,737.2,458.3,739,458.3z"/>
		<circle fill="#FFFFFF" cx="739" cy="461.7" r="3.4"/>
		<path fill="#594A42" d="M812,475.1c5.5,0,10-4.5,10-10s-4.5-10-10-10s-10,4.5-10,10S806.5,475.1,812,475.1z M815.1,458.3
			c1.9,0,3.4,1.5,3.4,3.4c0,1.9-1.5,3.4-3.4,3.4c-1.9,0-3.4-1.5-3.4-3.4C811.6,459.8,813.2,458.3,815.1,458.3z"/>
		<circle fill="#FFFFFF" cx="815.1" cy="461.7" r="3.4"/>
		<path fill="#FFFFFF" d="M755.5,543.3l2.5,15.6h12v-24.5C766.3,538.5,761.3,541.8,755.5,543.3z"/>
		<path fill="#FFFFFF" d="M778,534.4v24.5h12l2.5-15.6C786.7,541.8,781.7,538.5,778,534.4z"/>
		<path fill="#594A42" d="M800.5,544.4c0.1,0,0.3,0,0.4,0c12.9,0,23.3-10.5,23.3-23.3c0-2.2-1.8-4-4-4s-4,1.8-4,4
			c0,8.5-6.9,15.3-15.3,15.3c-0.7,0-1.4,0-2.1-0.1l-0.9-0.1c-0.1,0-0.3,0-0.4-0.1c0,0-0.1,0-0.1,0c-10.4-1.6-18.5-10.3-19.2-20.9
			c1-0.5,1.9-1.1,2.7-1.9l10.2-10.2c4.4-4.4,2.5-12-3.5-13.8l0,0c-8.8-2.6-18.2-2.6-27,0c-6,1.8-7.9,9.3-3.5,13.8l10.2,10.2
			c0.8,0.8,1.7,1.4,2.7,1.9c-0.8,10.6-8.9,19.3-19.3,20.9c0,0-0.1,0-0.1,0c-0.2,0-0.3,0-0.5,0.1l-0.9,0.1c-0.7,0.1-1.4,0.1-2.1,0.1
			c-8.5,0-15.3-6.9-15.3-15.3c0-2.2-1.8-4-4-4s-4,1.8-4,4c0,12.9,10.5,23.3,23.3,23.3c0.1,0,0.3,0,0.4,0l3.6,22.5H770h8h18.8
			L800.5,544.4z M790,558.9h-12v-24.5c3.7,4.1,8.7,7.4,14.5,9L790,558.9z M770,558.9h-12l-2.5-15.6c5.9-1.5,10.8-4.8,14.5-9V558.9z"
			/>
		<path fill="#A97C50" d="M634.9,613.2v67.9c0.6-1.3,2-2.3,3.6-2.3c2.2,0,4,1.8,4,4V696c2.1,1.3,4.5,2.2,7.2,2.4v-10.1
			c0-2.2,1.8-4,4-4s4,1.8,4,4v10.1c2.6-0.2,5.1-1.1,7.2-2.4v-13.2c0-2.2,1.8-4,4-4c1.6,0,2.9,0.9,3.6,2.3v-67.9
			c0-8.9-7.3-16.2-16.2-16.2h-5.1C642.1,597,634.9,604.2,634.9,613.2z"/>
		<path fill="#A97C50" d="M896.9,597h-5.1c-8.9,0-16.2,7.3-16.2,16.2v67.9c0.6-1.3,2-2.3,3.6-2.3c2.2,0,4,1.8,4,4V696
			c2.1,1.3,4.5,2.2,7.2,2.4v-10.1c0-2.2,1.8-4,4-4s4,1.8,4,4v10.1c2.6-0.2,5.1-1.1,7.2-2.4v-13.2c0-2.2,1.8-4,4-4
			c1.6,0,2.9,0.9,3.6,2.3v-67.9C913.2,604.2,905.9,597,896.9,597z"/>
		<path fill="#C49A6C" d="M774,794.6L774,794.6c-44,0-79.7-35.7-79.7-79.7v-45.2c0-44,35.7-79.7,79.7-79.7h0
			c44,0,79.7,35.7,79.7,79.7V715C853.7,759,818,794.6,774,794.6z"/>
	</g>
	<g>
		<path fill="#594A42" d="M480.7,704.4h-24.2c0,0.6,0,1.1,0,1.7v19.8c0,0.3,0,0.6,0,0.9h24.2c6.2,0,11.2-5,11.2-11.2
			S486.8,704.4,480.7,704.4z"/>
		<path fill="#594A42" d="M176.6,726.7c0-0.3,0-0.6,0-0.9v-18.6c0-0.9,0-1.9,0.1-2.8h-24.3c-6.2,0-11.2,5-11.2,11.2
			s5,11.2,11.2,11.2H176.6z"/>
		<path fill="#594A42" d="M480.7,689.4h-29c-2.8-4.4-6.6-8-11.1-10.5V519.5c0-9.8-2.1-19-5.8-27.4c8.4-8.5,13.6-20.1,13.6-33
			c0-25.8-21-46.8-46.8-46.8c-23.2,0-42.6,17-46.2,39.3h-77.8c-3.6-22.2-22.9-39.3-46.2-39.3c-25.8,0-46.8,21-46.8,46.8
			c0,12.9,5.2,24.5,13.7,33c-3.7,8.4-5.8,17.7-5.8,27.4V680c-4.1,2.3-7.7,5.5-10.4,9.4h-29.8c-14.4,0-26.2,11.7-26.2,26.2
			s11.7,26.2,26.2,26.2h28.6c2.3,3.9,5.4,7.3,9.2,9.8v11.7c0,2.2,1.8,4,4,4s4-1.8,4-4v-7.7c1.8,0.6,3.7,1,5.7,1.3v9.1
			c0,2.2,1.8,4,4,4s4-1.8,4-4v-9.1c2-0.3,3.9-0.7,5.7-1.3v7.7c0,2.2,1.8,4,4,4s4-1.8,4-4v-11.7c3.7-2.6,6.9-5.9,9.2-9.8h163.8
			c2.3,3.9,5.5,7.3,9.2,9.8v11.7c0,2.2,1.8,4,4,4s4-1.8,4-4v-7.7c1.8,0.6,3.7,1,5.7,1.3v9.1c0,2.2,1.8,4,4,4s4-1.8,4-4v-9.1
			c2-0.3,3.9-0.7,5.7-1.3v7.7c0,2.2,1.8,4,4,4s4-1.8,4-4v-11.7c3.7-2.6,6.9-5.9,9.2-9.8h28.5c14.4,0,26.2-11.7,26.2-26.2
			S495.1,689.4,480.7,689.4z M480.7,726.7h-24.2c0-0.3,0-0.6,0-0.9v-19.8c0-0.6,0-1.1,0-1.7h24.2c6.2,0,11.2,5,11.2,11.2
			S486.8,726.7,480.7,726.7z M141.2,715.6c0-6.2,5-11.2,11.2-11.2h24.3c-0.1,0.9-0.1,1.9-0.1,2.8v18.6c0,0.3,0,0.6,0,0.9h-24.2
			C146.2,726.7,141.2,721.7,141.2,715.6z M262.3,451.6h-1.9c-2.3,0-4.5,0.1-6.7,0.3c-3-9.4-11.9-16.2-22.3-16.2
			c-12.9,0-23.4,10.5-23.4,23.4c0,4.8,1.4,9.2,3.9,12.9c-2,2.1-3.9,4.2-5.6,6.5c-4.2-5.4-6.7-12.1-6.7-19.4
			c0-17.5,14.3-31.8,31.8-31.8C246.4,427.3,259,437.7,262.3,451.6z M218,466.5c-1.2-2.2-1.9-4.7-1.9-7.4c0-8.5,6.9-15.4,15.4-15.4
			c6.4,0,11.9,3.9,14.2,9.5C235.4,455.5,226,460.2,218,466.5z M207.5,519.5c0-29.2,23.7-52.9,52.9-52.9h112.2
			c29.2,0,52.9,23.7,52.9,52.9v155.4c-0.1,0-0.2,0-0.3,0c-17.2,0-31.2,14-31.2,31.2v19.8c0,0.3,0,0.6,0,0.9H238.9c0-0.3,0-0.6,0-0.9
			v-18.6c0-17.2-14-31.2-31.2-31.2c-0.1,0-0.2,0-0.2,0V519.5z M433.4,459.1c0,7.3-2.5,14-6.6,19.4c-1.7-2.3-3.6-4.5-5.6-6.5
			c2.5-3.7,3.9-8.1,3.9-12.9c0-12.9-10.5-23.4-23.4-23.4c-10.4,0-19.2,6.8-22.3,16.2c-2.2-0.2-4.4-0.3-6.7-0.3h-1.9
			c3.4-13.9,15.9-24.3,30.9-24.3C419.1,427.3,433.4,441.6,433.4,459.1z M387.4,453.2c2.3-5.6,7.8-9.5,14.2-9.5
			c8.5,0,15.4,6.9,15.4,15.4c0,2.7-0.7,5.2-1.9,7.4C407.1,460.1,397.6,455.5,387.4,453.2z M441.5,706.1v19.4
			c-0.7-0.6-1.6-0.9-2.5-0.9c-2.2,0-4,1.8-4,4v10.2c-1.7,1.3-3.6,2.2-5.7,2.7v-8c0-2.2-1.8-4-4-4s-4,1.8-4,4v8
			c-2.1-0.5-4-1.5-5.7-2.7v-10.2c0-2.2-1.8-4-4-4c-1,0-1.8,0.4-2.5,0.9v-19.4c0-8.9,7.3-16.2,16.2-16.2S441.5,697.2,441.5,706.1z
			 M207.8,729.6c-2.2,0-4,1.8-4,4v8c-2.1-0.5-4-1.5-5.7-2.7v-10.2c0-2.2-1.8-4-4-4c-1,0-1.8,0.4-2.5,0.9v-18.3
			c0-8.9,7.3-16.2,16.2-16.2s16.2,7.3,16.2,16.2v18.3c-0.7-0.6-1.6-0.9-2.5-0.9c-2.2,0-4,1.8-4,4v10.2c-1.7,1.3-3.6,2.2-5.7,2.7v-8
			C211.8,731.4,210,729.6,207.8,729.6z"/>
		<path fill="#A97C50" d="M199.7,459.1c0,7.3,2.5,14.1,6.7,19.4c1.7-2.3,3.6-4.5,5.6-6.5c-2.5-3.7-3.9-8.1-3.9-12.9
			c0-12.9,10.5-23.4,23.4-23.4c10.4,0,19.2,6.8,22.3,16.2c2.2-0.2,4.5-0.3,6.7-0.3h1.9c-3.4-13.9-15.9-24.3-30.9-24.3
			C213.9,427.3,199.7,441.6,199.7,459.1z"/>
		<path fill="#C49A6C" d="M231.5,443.7c-8.5,0-15.4,6.9-15.4,15.4c0,2.7,0.7,5.2,1.9,7.4c8-6.4,17.4-11,27.7-13.3
			C243.4,447.7,237.9,443.7,231.5,443.7z"/>
		<path fill="#A97C50" d="M370.7,451.6h1.9c2.3,0,4.5,0.1,6.7,0.3c3-9.4,11.9-16.2,22.3-16.2c12.9,0,23.4,10.5,23.4,23.4
			c0,4.8-1.4,9.2-3.9,12.9c2,2.1,3.9,4.2,5.6,6.5c4.2-5.4,6.6-12.1,6.6-19.4c0-17.5-14.3-31.8-31.8-31.8
			C386.6,427.3,374.1,437.7,370.7,451.6z"/>
		<path fill="#C49A6C" d="M401.6,443.7c-6.4,0-11.9,3.9-14.2,9.5c10.3,2.3,19.7,6.9,27.7,13.3c1.2-2.2,1.9-4.7,1.9-7.4
			C416.9,450.6,410,443.7,401.6,443.7z"/>
		<path fill="#A97C50" d="M239,707.3v18.6c0,0.3,0,0.6,0,0.9h155.1c0-0.3,0-0.6,0-0.9v-19.8c0-17.2,14-31.2,31.2-31.2
			c0.1,0,0.2,0,0.3,0V519.5c0-29.2-23.7-52.9-52.9-52.9H260.4c-29.2,0-52.9,23.7-52.9,52.9V676c0.1,0,0.2,0,0.2,0
			C225,676,239,690,239,707.3z M350.8,522.9c5,0,9,4,9,9c0,5-4,9-9,9s-9-4-9-9C341.8,527,345.9,522.9,350.8,522.9z M310.4,575.5
			l-9.3-9.3c-4-4-2.3-10.8,3.2-12.4c8-2.4,16.4-2.4,24.4,0c5.4,1.6,7.2,8.4,3.2,12.4l-9.3,9.3c-0.6,0.6-1.3,1.1-2,1.5
			c0.6,9.8,8.2,17.7,17.9,18.8l0.4,0c0.6,0.1,1.3,0.1,1.9,0.1c7.4,0,13.5-6,13.5-13.5c0-2.2,1.8-4,4-4s4,1.8,4,4
			c0,11.8-9.6,21.5-21.5,21.5c0,0,0,0,0,0l-3.3,20.3h-17h-8h-17l-3.3-20.3c0,0,0,0,0,0c-11.8,0-21.5-9.6-21.5-21.5c0-2.2,1.8-4,4-4
			s4,1.8,4,4c0,7.4,6,13.5,13.5,13.5c0.6,0,1.3,0,1.9-0.1l0.4,0c9.7-1.1,17.3-9,17.9-18.8C311.7,576.6,311,576.1,310.4,575.5z
			 M291.2,531.9c0,5-4,9-9,9c-5,0-9-4-9-9c0-5,4-9,9-9C287.1,522.9,291.2,527,291.2,531.9z"/>
		<path fill="#594A42" d="M273.2,531.9c0,5,4,9,9,9c5,0,9-4,9-9c0-5-4-9-9-9C277.2,522.9,273.2,527,273.2,531.9z M284.9,525.8
			c1.7,0,3.1,1.4,3.1,3.1s-1.4,3.1-3.1,3.1c-1.7,0-3.1-1.4-3.1-3.1S283.2,525.8,284.9,525.8z"/>
		<circle fill="#FFFFFF" cx="284.9" cy="528.9" r="3.1"/>
		<path fill="#594A42" d="M350.8,540.9c5,0,9-4,9-9c0-5-4-9-9-9s-9,4-9,9C341.8,536.9,345.9,540.9,350.8,540.9z M353.6,525.8
			c1.7,0,3.1,1.4,3.1,3.1s-1.4,3.1-3.1,3.1s-3.1-1.4-3.1-3.1S351.9,525.8,353.6,525.8z"/>
		<circle fill="#FFFFFF" cx="353.6" cy="528.9" r="3.1"/>
		<path fill="#594A42" d="M294.5,595.8l-0.4,0c-0.6,0.1-1.3,0.1-1.9,0.1c-7.4,0-13.5-6-13.5-13.5c0-2.2-1.8-4-4-4s-4,1.8-4,4
			c0,11.8,9.6,21.5,21.5,21.5c0,0,0,0,0,0l3.3,20.3h17h8h17l3.3-20.3c0,0,0,0,0,0c11.8,0,21.5-9.6,21.5-21.5c0-2.2-1.8-4-4-4
			s-4,1.8-4,4c0,7.4-6,13.5-13.5,13.5c-0.6,0-1.3,0-1.9-0.1l-0.4,0c-9.7-1.1-17.3-9-17.9-18.8c0.7-0.4,1.4-0.9,2-1.5l9.3-9.3
			c4-4,2.3-10.8-3.2-12.4c-8-2.4-16.4-2.4-24.4,0c-5.4,1.6-7.2,8.4-3.2,12.4l9.3,9.3c0.6,0.6,1.3,1.1,2,1.5
			C311.8,586.8,304.2,594.7,294.5,595.8z M330.7,616.3h-10.1v-20.8c3.3,3.4,7.4,6.1,12.3,7.4L330.7,616.3z M312.5,616.3h-10.1
			l-2.2-13.4c4.9-1.4,9-4,12.3-7.4V616.3z"/>
		<path fill="#FFFFFF" d="M302.4,616.3h10.1v-20.8c-3.3,3.4-7.4,6.1-12.3,7.4L302.4,616.3z"/>
		<path fill="#FFFFFF" d="M320.5,616.3h10.1l2.2-13.4c-4.9-1.4-9-4-12.3-7.4V616.3z"/>
		<path fill="#A97C50" d="M211.8,741.6c2.1-0.5,4-1.5,5.7-2.7v-10.2c0-2.2,1.8-4,4-4c1,0,1.8,0.4,2.5,0.9v-18.3
			c0-8.9-7.3-16.2-16.2-16.2s-16.2,7.3-16.2,16.2v18.3c0.7-0.6,1.6-0.9,2.5-0.9c2.2,0,4,1.8,4,4v10.2c1.7,1.3,3.6,2.2,5.7,2.7v-8
			c0-2.2,1.8-4,4-4s4,1.8,4,4V741.6z"/>
		<path fill="#A97C50" d="M425.3,689.9c-8.9,0-16.2,7.3-16.2,16.2v19.4c0.7-0.6,1.6-0.9,2.5-0.9c2.2,0,4,1.8,4,4v10.2
			c1.7,1.3,3.6,2.2,5.7,2.7v-8c0-2.2,1.8-4,4-4s4,1.8,4,4v8c2.1-0.5,4-1.5,5.7-2.7v-10.2c0-2.2,1.8-4,4-4c1,0,1.8,0.4,2.5,0.9v-19.4
			C441.5,697.2,434.2,689.9,425.3,689.9z"/>
		<path fill="#C49A6C" d="M386.8,726.7H246.2V726c0-38.8,31.5-70.3,70.3-70.3h0c38.8,0,70.3,31.5,70.3,70.3V726.7z"/>
	</g>
	<g>
		<path fill="#594A42" d="M1335,590.1h-18.2v14.6h18.2c3.7,0,6.7-3,6.7-6.7v-1.2C1341.7,593.2,1338.7,590.1,1335,590.1z"/>
		<path fill="#594A42" d="M1073.1,590.1c-3.7,0-6.7,3-6.7,6.7v1.2c0,3.7,3,6.7,6.7,6.7h18.3v-14.6H1073.1z"/>
		<path fill="#594A42" d="M1335,575.1h-22.5c-2.2-3.3-5.1-6-8.5-8V454.2c0-11.1-2.7-21.6-7.5-30.9c8.4-7.1,13.7-17.7,13.7-29.5
			c0-21.3-17.4-38.7-38.7-38.7c-18.8,0-34.5,13.4-38,31.2h-59.2c-3.5-17.8-19.2-31.2-38-31.2c-21.3,0-38.7,17.4-38.7,38.7
			c0,11.8,5.3,22.4,13.7,29.5c-4.8,9.3-7.5,19.8-7.5,30.9V568c-3.1,1.8-5.8,4.2-7.8,7.1h-23.1c-12,0-21.7,9.8-21.7,21.7v1.2
			c0,12,9.8,21.7,21.7,21.7h22.1c2,3.2,4.6,5.9,7.7,7.9v7.6c0,2.2,1.8,4,4,4s4-1.8,4-4v-4.1c0.9,0.2,1.9,0.4,2.9,0.5v5.7
			c0,2.2,1.8,4,4,4s4-1.8,4-4v-5.7c1-0.1,1.9-0.3,2.9-0.5v4.1c0,2.2,1.8,4,4,4s4-1.8,4-4v-7.6c3.1-2.1,5.7-4.8,7.7-7.9h127.7
			c2,3.2,4.6,5.9,7.7,7.9v7.6c0,2.2,1.8,4,4,4s4-1.8,4-4v-4.1c0.9,0.2,1.9,0.4,2.9,0.5v5.7c0,2.2,1.8,4,4,4s4-1.8,4-4v-5.7
			c1-0.1,1.9-0.3,2.9-0.5v4.1c0,2.2,1.8,4,4,4s4-1.8,4-4v-7.6c3.1-2.1,5.7-4.8,7.7-7.9h22c12,0,21.7-9.8,21.7-21.7v-1.2
			C1356.7,584.9,1347,575.1,1335,575.1z M1341.7,598c0,3.7-3,6.7-6.7,6.7h-18.2v-14.6h18.2c3.7,0,6.7,3,6.7,6.7V598z M1073.1,604.8
			c-3.7,0-6.7-3-6.7-6.7v-1.2c0-3.7,3-6.7,6.7-6.7h18.3v14.6H1073.1z M1112.8,393.8c0-13.1,10.6-23.7,23.7-23.7
			c10.9,0,20.1,7.4,22.8,17.4c-1.4,0.3-2.8,0.6-4.2,0.9c-2.3-8.1-9.8-14-18.6-14c-10.7,0-19.4,8.7-19.4,19.4
			c0,5.3,2.2,10.2,5.6,13.7c-1,1-2,2.1-2.9,3.2C1115.5,406.3,1112.8,400.4,1112.8,393.8z M1128.6,402c-2.1-2.1-3.5-5-3.5-8.2
			c0-6.3,5.1-11.4,11.4-11.4c5.3,0,9.7,3.6,11,8.5C1140.6,393.5,1134.2,397.3,1128.6,402z M1171.9,401.3h64.2
			c29.2,0,52.9,23.7,52.9,52.9v109.4c-13.8,0.3-25,11.7-25,25.6v15.6H1144v-14.7c0-13.9-11.1-25.2-25-25.6V454.2
			C1119,425,1142.8,401.3,1171.9,401.3z M1295.3,393.8c0,6.6-2.7,12.6-7.1,16.9c-0.9-1.1-1.9-2.2-2.9-3.2c3.5-3.5,5.6-8.3,5.6-13.7
			c0-10.7-8.7-19.4-19.4-19.4c-8.8,0-16.3,5.9-18.6,14c-1.4-0.4-2.8-0.7-4.2-0.9c2.8-10,12-17.4,22.8-17.4
			C1284.7,370.1,1295.3,380.7,1295.3,393.8z M1279.5,402c-5.6-4.7-12-8.4-18.9-11.1c1.3-4.9,5.7-8.5,11-8.5
			c6.3,0,11.4,5.1,11.4,11.4C1283,397,1281.6,399.9,1279.5,402z M1294.4,611.7c0-2.2-1.8-4-4-4s-4,1.8-4,4v4.7c-1-0.3-2-0.8-2.9-1.5
			v-7.2c0-2.2-1.8-4-4-4c-0.2,0-0.3,0-0.5,0v-14.6c0-5.8,4.8-10.6,10.6-10.6h1.5c5.8,0,10.6,4.8,10.6,10.6v14.6c-0.2,0-0.3,0-0.5,0
			c-2.2,0-4,1.8-4,4v7.2c-0.9,0.6-1.8,1.1-2.9,1.5V611.7z M1121.7,611.7c0-2.2-1.8-4-4-4s-4,1.8-4,4v4.7c-1-0.3-2-0.8-2.9-1.5v-7.2
			c0-2.2-1.8-4-4-4c-0.2,0-0.3,0-0.5,0v-13.7c0-5.8,4.8-10.6,10.6-10.6h1.5c5.8,0,10.6,4.8,10.6,10.6v13.7c-0.2,0-0.3,0-0.5,0
			c-2.2,0-4,1.8-4,4v7.2c-0.9,0.6-1.8,1.1-2.9,1.5V611.7z"/>
		<path fill="#A97C50" d="M1117.1,393.8c0-10.7,8.7-19.4,19.4-19.4c8.8,0,16.3,5.9,18.6,14c1.4-0.4,2.8-0.7,4.2-0.9
			c-2.8-10-12-17.4-22.8-17.4c-13.1,0-23.7,10.6-23.7,23.7c0,6.6,2.7,12.6,7.1,16.9c0.9-1.1,1.9-2.2,2.9-3.2
			C1119.3,403.9,1117.1,399.1,1117.1,393.8z"/>
		<path fill="#C49A6C" d="M1136.5,382.4c-6.3,0-11.4,5.1-11.4,11.4c0,3.2,1.3,6.1,3.5,8.2c5.6-4.7,12-8.4,18.9-11.1
			C1146.2,386,1141.8,382.4,1136.5,382.4z"/>
		<path fill="#A97C50" d="M1248.7,387.5c1.4,0.3,2.8,0.6,4.2,0.9c2.3-8.1,9.8-14,18.6-14c10.7,0,19.4,8.7,19.4,19.4
			c0,5.3-2.2,10.1-5.6,13.7c1,1,2,2.1,2.9,3.2c4.4-4.3,7.1-10.3,7.1-16.9c0-13.1-10.6-23.7-23.7-23.7
			C1260.7,370.1,1251.5,377.5,1248.7,387.5z"/>
		<path fill="#C49A6C" d="M1271.6,382.4c-5.3,0-9.7,3.6-11,8.5c6.9,2.7,13.3,6.4,18.9,11.1c2.1-2.1,3.5-5,3.5-8.2
			C1283,387.5,1277.9,382.4,1271.6,382.4z"/>
		<path fill="#A97C50" d="M1119,454.2v110.3c13.8,0.3,25,11.7,25,25.6v14.7h120.1v-15.6c0-13.9,11.2-25.3,25-25.6V454.2
			c0-29.2-23.7-52.9-52.9-52.9h-64.2C1142.8,401.3,1119,425,1119,454.2z M1231.3,444.5c3.9,0,7.1,3.2,7.1,7.1c0,3.9-3.2,7.1-7.1,7.1
			c-3.9,0-7.1-3.2-7.1-7.1C1224.2,447.7,1227.4,444.5,1231.3,444.5z M1199.2,486.2l-7.4-7.4c-3.2-3.2-1.8-8.6,2.5-9.9v0
			c6.3-1.9,13.1-1.9,19.4,0l0,0c4.3,1.3,5.7,6.7,2.5,9.9l-7.4,7.4c-0.3,0.3-0.5,0.5-0.8,0.7c0.3,7.6,6.1,13.8,13.5,14.6l0.3,0
			c0.5,0,1,0.1,1.4,0.1c5.4,0,9.9-4.4,9.9-9.9c0-2.2,1.8-4,4-4s4,1.8,4,4c0,9.6-7.6,17.5-17.2,17.8l-2.6,16.2H1208h-8h-13.3
			l-2.6-16.2c-9.5-0.4-17.2-8.2-17.2-17.8c0-2.2,1.8-4,4-4s4,1.8,4,4c0,5.4,4.4,9.9,9.9,9.9c0.5,0,1,0,1.4-0.1l0.3,0
			c7.4-0.9,13.2-7,13.5-14.6C1199.7,486.7,1199.5,486.5,1199.2,486.2z M1183.9,451.6c0,3.9-3.2,7.1-7.1,7.1c-3.9,0-7.1-3.2-7.1-7.1
			c0-3.9,3.2-7.1,7.1-7.1C1180.7,444.5,1183.9,447.7,1183.9,451.6z"/>
		<path fill="#594A42" d="M1169.6,451.6c0,3.9,3.2,7.1,7.1,7.1c3.9,0,7.1-3.2,7.1-7.1c0-3.9-3.2-7.1-7.1-7.1
			C1172.8,444.5,1169.6,447.7,1169.6,451.6z M1179,446.7c1.4,0,2.4,1.1,2.4,2.4c0,1.4-1.1,2.4-2.4,2.4c-1.4,0-2.4-1.1-2.4-2.4
			C1176.5,447.8,1177.6,446.7,1179,446.7z"/>
		<circle fill="#FFFFFF" cx="1179" cy="449.2" r="2.4"/>
		<path fill="#594A42" d="M1231.3,458.8c3.9,0,7.1-3.2,7.1-7.1c0-3.9-3.2-7.1-7.1-7.1c-3.9,0-7.1,3.2-7.1,7.1
			C1224.2,455.6,1227.4,458.8,1231.3,458.8z M1233.5,446.7c1.4,0,2.4,1.1,2.4,2.4c0,1.4-1.1,2.4-2.4,2.4s-2.4-1.1-2.4-2.4
			C1231,447.8,1232.1,446.7,1233.5,446.7z"/>
		<circle fill="#FFFFFF" cx="1233.5" cy="449.2" r="2.4"/>
		<path fill="#594A42" d="M1186.5,501.5l-0.3,0c-0.5,0-1,0.1-1.4,0.1c-5.4,0-9.9-4.4-9.9-9.9c0-2.2-1.8-4-4-4s-4,1.8-4,4
			c0,9.6,7.6,17.5,17.2,17.8l2.6,16.2h13.3h8h13.3l2.6-16.2c9.5-0.4,17.2-8.2,17.2-17.8c0-2.2-1.8-4-4-4s-4,1.8-4,4
			c0,5.4-4.4,9.9-9.9,9.9c-0.5,0-1,0-1.4-0.1l-0.3,0c-7.4-0.9-13.2-7-13.5-14.6c0.3-0.2,0.6-0.4,0.8-0.7l7.4-7.4
			c3.2-3.2,1.8-8.6-2.5-9.9l0,0c-6.3-1.9-13.1-1.9-19.4,0v0c-4.3,1.3-5.7,6.7-2.5,9.9l7.4,7.4c0.3,0.3,0.5,0.5,0.8,0.7
			C1199.7,494.5,1193.9,500.6,1186.5,501.5z M1214.6,517.8h-6.5V504c2.3,2,5,3.6,8,4.6L1214.6,517.8z M1192,508.5
			c3.1-1,5.7-2.6,8-4.5v13.8h-6.5L1192,508.5z"/>
		<path fill="#FFFFFF" d="M1200,504c-2.3,2-5,3.6-8,4.5l1.5,9.2h6.5V504z"/>
		<path fill="#FFFFFF" d="M1208,517.8h6.5l1.5-9.2c-3.1-1-5.7-2.6-8-4.6V517.8z"/>
		<path fill="#A97C50" d="M1124.6,607.8c0-2.2,1.8-4,4-4c0.2,0,0.3,0,0.5,0v-13.7c0-5.8-4.8-10.6-10.6-10.6h-1.5
			c-5.8,0-10.6,4.8-10.6,10.6v13.7c0.2,0,0.3,0,0.5,0c2.2,0,4,1.8,4,4v7.2c0.9,0.6,1.8,1.1,2.9,1.5v-4.7c0-2.2,1.8-4,4-4s4,1.8,4,4
			v4.7c1-0.3,2-0.8,2.9-1.5V607.8z"/>
		<path fill="#A97C50" d="M1297.3,607.8c0-2.2,1.8-4,4-4c0.2,0,0.3,0,0.5,0v-14.6c0-5.8-4.8-10.6-10.6-10.6h-1.5
			c-5.8,0-10.6,4.8-10.6,10.6v14.6c0.2,0,0.3,0,0.5,0c2.2,0,4,1.8,4,4v7.2c0.9,0.6,1.8,1.1,2.9,1.5v-4.7c0-2.2,1.8-4,4-4s4,1.8,4,4
			v4.7c1-0.3,2-0.8,2.9-1.5V607.8z"/>
		<path fill="#C49A6C" d="M1256.1,604.8H1152v-3.1c0-27.3,22.2-49.5,49.5-49.5h5.2c27.3,0,49.5,22.2,49.5,49.5V604.8z"/>
	</g>
	<g>
		<path fill="#F9C12E" d="M89.4,495.4c-8.2-9.7-13.3-24-13.3-40.3c0-1,0-1.9,0.1-2.9c-3-2.3-6.4-3.6-9.9-3.6
			c-12.9,0-23.8,17.5-23.8,38.1c0,16.5,6.9,30.9,16.3,36.1v-36.1c0-4.1,3.4-7.5,7.5-7.5s7.5,3.4,7.5,7.5v36.1
			C81.5,518.6,87.5,508.2,89.4,495.4z"/>
		<path fill="#EF6B60" d="M138.8,455.1c0-20.7-10.9-38.1-23.8-38.1s-23.8,17.5-23.8,38.1c0,16.5,6.9,30.9,16.3,36.1v-36.1
			c0-4.1,3.4-7.5,7.5-7.5s7.5,3.4,7.5,7.5v36.1C131.8,486.1,138.8,471.6,138.8,455.1z"/>
		<path fill="#594A42" d="M115,402c-16.9,0-30.9,14.1-36.4,34.3c-3.9-1.7-8-2.6-12.3-2.6c-21.8,0-38.8,23.3-38.8,53.1
			c0,26.3,13.2,47.5,31.3,52.2v37.4c0,4.1,3.4,7.5,7.5,7.5s7.5-3.4,7.5-7.5v-37.4c13.5-3.5,24.2-16.2,28.9-33.3
			c1.6,0.7,3.2,1.3,4.8,1.7v83.8c0,4.1,3.4,7.5,7.5,7.5s7.5-3.4,7.5-7.5v-83.8c18-4.7,31.3-25.9,31.3-52.2
			C153.8,425.3,136.7,402,115,402z M115,447.6c-4.1,0-7.5,3.4-7.5,7.5v36.1c-9.4-5.2-16.3-19.6-16.3-36.1
			c0-20.7,10.9-38.1,23.8-38.1s23.8,17.5,23.8,38.1c0,16.5-6.9,30.9-16.3,36.1v-36.1C122.5,451,119.1,447.6,115,447.6z M66.3,479.3
			c-4.1,0-7.5,3.4-7.5,7.5v36.1c-9.4-5.2-16.3-19.6-16.3-36.1c0-20.7,10.9-38.1,23.8-38.1c3.5,0,6.9,1.3,9.9,3.6
			c0,1-0.1,1.9-0.1,2.9c0,16.3,5.1,30.6,13.3,40.3c-1.9,12.7-8,23.2-15.6,27.4v-36.1C73.8,482.6,70.4,479.3,66.3,479.3z"/>
		<path fill="#EF6B60" d="M535.1,472.9c0-1.6-0.1-3.1-0.2-4.7c-5.5-7.2-9.3-16.7-10.9-27.4c-3.7-3.8-8.1-6.1-12.7-6.1
			c-12.9,0-23.8,17.5-23.8,38.1c0,16.5,6.9,30.9,16.3,36.1v-36.1c0-4.1,3.4-7.5,7.5-7.5s7.5,3.4,7.5,7.5v36.1
			C528.1,503.9,535.1,489.4,535.1,472.9z"/>
		<path fill="#EF6B60" d="M627.4,495.8c0-20.7-10.9-38.1-23.8-38.1c-3.6,0-7.1,1.4-10.2,3.9c-2.5,4.6-5.5,8.7-8.9,12
			c-2.9,6.3-4.7,14.1-4.7,22.3c0,16.5,6.9,30.9,16.3,36.1v-36.1c0-4.1,3.4-7.5,7.5-7.5s7.5,3.4,7.5,7.5v36.1
			C620.4,526.7,627.4,512.3,627.4,495.8z"/>
		<path fill="#594A42" d="M603.6,442.6c-1.3,0-2.7,0.1-4,0.3c0.7-4.1,1.1-8.5,1.1-13c0-29.8-17-53.1-38.8-53.1
			c-19.9,0-35.8,19.5-38.4,45.7c-3.8-1.7-7.9-2.6-12.2-2.6c-21.8,0-38.8,23.3-38.8,53.1c0,26.3,13.2,47.5,31.3,52.2v39.4
			c0,4.1,3.4,7.5,7.5,7.5s7.5-3.4,7.5-7.5v-39.4c16.3-4.2,28.7-22,30.9-44.7c1.5,0.7,3.1,1.2,4.7,1.7v70c0,4.1,3.4,7.5,7.5,7.5
			s7.5-3.4,7.5-7.5v-30.6c5.4,13.7,15,23.5,26.6,26.5v10.9c0,4.1,3.4,7.5,7.5,7.5s7.5-3.4,7.5-7.5v-10.9c18-4.7,31.3-25.9,31.3-52.2
			C642.4,466,625.3,442.6,603.6,442.6z M603.6,488.3c-4.1,0-7.5,3.4-7.5,7.5v36.1c-9.4-5.2-16.3-19.6-16.3-36.1
			c0-8.3,1.7-16,4.7-22.3c3.4-3.3,6.4-7.3,8.9-12c3.1-2.5,6.6-3.9,10.2-3.9c12.9,0,23.8,17.5,23.8,38.1c0,16.5-6.9,30.9-16.3,36.1
			v-36.1C611.1,491.6,607.7,488.3,603.6,488.3z M511.3,465.4c-4.1,0-7.5,3.4-7.5,7.5v36.1c-9.4-5.2-16.3-19.6-16.3-36.1
			c0-20.7,10.9-38.1,23.8-38.1c4.6,0,9,2.2,12.7,6.1c1.6,10.7,5.5,20.2,10.9,27.4c0.1,1.5,0.2,3.1,0.2,4.7
			c0,16.5-6.9,30.9-16.3,36.1v-36.1C518.8,468.8,515.4,465.4,511.3,465.4z M538.1,429.9c0-20.7,10.9-38.1,23.8-38.1
			s23.8,17.5,23.8,38.1c0,16.5-6.9,30.9-16.3,36.1v-36.1c0-4.1-3.4-7.5-7.5-7.5s-7.5,3.4-7.5,7.5V466
			C545.1,460.8,538.1,446.4,538.1,429.9z"/>
		<path fill="#F9C12E" d="M554.4,429.9c0-4.1,3.4-7.5,7.5-7.5s7.5,3.4,7.5,7.5V466c9.4-5.2,16.3-19.6,16.3-36.1
			c0-20.7-10.9-38.1-23.8-38.1s-23.8,17.5-23.8,38.1c0,16.5,6.9,30.9,16.3,36.1V429.9z"/>
		<path fill="#F9C12E" d="M1011.2,363c0-20.7-10.9-38.1-23.8-38.1s-23.8,17.5-23.8,38.1c0,16.5,6.9,30.9,16.3,36.1V363
			c0-4.1,3.4-7.5,7.5-7.5s7.5,3.4,7.5,7.5v36.1C1004.2,394,1011.2,379.5,1011.2,363z"/>
		<path fill="#EF6B60" d="M1067.8,426.9c0-20.7-10.9-38.1-23.8-38.1s-23.8,17.5-23.8,38.1c0,16.5,6.9,30.9,16.3,36.1v-36.1
			c0-4.1,3.4-7.5,7.5-7.5s7.5,3.4,7.5,7.5V463C1060.9,457.8,1067.8,443.4,1067.8,426.9z"/>
		<path fill="#594A42" d="M1044.1,373.7c-7.4,0-14.3,2.7-20.1,7.5c1.5-5.6,2.2-11.8,2.2-18.2c0-29.8-17-53.1-38.8-53.1
			c-21.8,0-38.8,23.3-38.8,53.1c0,26.3,13.2,47.5,31.3,52.2v70c0,4.1,3.4,7.5,7.5,7.5s7.5-3.4,7.5-7.5v-70c4.6-1.2,8.8-3.4,12.6-6.5
			c-1.5,5.6-2.2,11.8-2.2,18.2c0,26.3,13.2,47.5,31.3,52.2V504c0,4.1,3.4,7.5,7.5,7.5s7.5-3.4,7.5-7.5V479
			c18-4.7,31.3-25.9,31.3-52.2C1082.8,397.1,1065.8,373.7,1044.1,373.7z M1044.1,419.4c-4.1,0-7.5,3.4-7.5,7.5V463
			c-9.4-5.2-16.3-19.6-16.3-36.1c0-20.7,10.9-38.1,23.8-38.1s23.8,17.5,23.8,38.1c0,16.5-6.9,30.9-16.3,36.1v-36.1
			C1051.6,422.7,1048.2,419.4,1044.1,419.4z M987.4,355.5c-4.1,0-7.5,3.4-7.5,7.5v36.1c-9.4-5.2-16.3-19.6-16.3-36.1
			c0-20.7,10.9-38.1,23.8-38.1s23.8,17.5,23.8,38.1c0,16.5-6.9,30.9-16.3,36.1V363C994.9,358.9,991.5,355.5,987.4,355.5z"/>
	</g>
</g>
</svg>
